<svg width="29" height="28" viewBox="0 0 29 28" fill="none" xmlns="http://www.w3.org/2000/svg">
<path d="M12.8333 13.9022L10.675 11.9756L9.5 13.0244L12.8333 16L19.5 10.0489L18.325 9L12.8333 13.9022Z" fill="#607D8B"/>
<path d="M14.5 24L9.868 21.5303C8.5475 20.8277 7.44323 19.7789 6.67369 18.4963C5.90416 17.2137 5.49842 15.7457 5.5 14.25V4.5C5.5004 4.1023 5.65856 3.721 5.93978 3.43978C6.221 3.15856 6.6023 3.0004 7 3H22C22.3977 3.0004 22.779 3.15856 23.0602 3.43978C23.3414 3.721 23.4996 4.1023 23.5 4.5V14.25C23.5016 15.7457 23.0958 17.2137 22.3263 18.4963C21.5568 19.7789 20.4525 20.8277 19.132 21.5303L14.5 24ZM7 4.5V14.25C6.99876 15.4739 7.33083 16.6749 7.96058 17.7243C8.59032 18.7737 9.49396 19.6318 10.5745 20.2065L14.5 22.2997L18.4255 20.2073C19.5062 19.6325 20.4099 18.7743 21.0396 17.7248C21.6694 16.6752 22.0014 15.474 22 14.25V4.5H7Z" fill="#607D8B"/>
</svg>
