<svg width="30" height="28" viewBox="0 0 30 28" fill="none" xmlns="http://www.w3.org/2000/svg">
<path d="M2 3H4.04878L4.92683 6.55386M4.92683 6.55386L7.85366 18.4001H23.0732L26 6.55386H4.92683Z" stroke="#607D8B" stroke-width="2" stroke-linecap="round" stroke-linejoin="round"/>
<path d="M7.86848 25.0001C8.74563 25.0001 9.45669 24.2015 9.45669 23.2163C9.45669 22.2311 8.74563 21.4325 7.86848 21.4325C6.99134 21.4325 6.28027 22.2311 6.28027 23.2163C6.28027 24.2015 6.99134 25.0001 7.86848 25.0001Z" stroke="#607D8B" stroke-width="1.6" stroke-linecap="round" stroke-linejoin="round"/>
<path d="M22.8504 25.0001C23.7276 25.0001 24.4386 24.2015 24.4386 23.2163C24.4386 22.2311 23.7276 21.4325 22.8504 21.4325C21.9733 21.4325 21.2622 22.2311 21.2622 23.2163C21.2622 24.2015 21.9733 25.0001 22.8504 25.0001Z" stroke="#607D8B" stroke-width="1.6" stroke-linecap="round" stroke-linejoin="round"/>
</svg>
