<svg width="35" height="32" viewBox="0 0 35 32" fill="none" xmlns="http://www.w3.org/2000/svg">
<path d="M2.3335 4H4.89143L5.98768 7.93052M5.98768 7.93052L9.64187 21.0323H28.6436L32.2978 7.93052H5.98768Z" stroke="#212121" stroke-width="2.5" stroke-linecap="round" stroke-linejoin="round"/>
<path d="M9.66986 28.0001C10.7663 28.0001 11.6552 27.1336 11.6552 26.0646C11.6552 24.9957 10.7663 24.1292 9.66986 24.1292C8.57342 24.1292 7.68457 24.9957 7.68457 26.0646C7.68457 27.1336 8.57342 28.0001 9.66986 28.0001Z" stroke="#212121" stroke-width="2" stroke-linecap="round" stroke-linejoin="round"/>
<path d="M28.3974 28.0001C29.4939 28.0001 30.3827 27.1336 30.3827 26.0646C30.3827 24.9957 29.4939 24.1292 28.3974 24.1292C27.301 24.1292 26.4121 24.9957 26.4121 26.0646C26.4121 27.1336 27.301 28.0001 28.3974 28.0001Z" stroke="#212121" stroke-width="2" stroke-linecap="round" stroke-linejoin="round"/>
</svg>
