<svg width="33" height="33" viewBox="0 0 33 33" fill="none" xmlns="http://www.w3.org/2000/svg">
<path d="M31.4137 16.0395C31.37 15.9407 30.3112 13.592 27.9575 11.2382C24.8212 8.10196 20.86 6.44446 16.5 6.44446C12.14 6.44446 8.17874 8.10196 5.04249 11.2382C2.68874 13.592 1.62499 15.9445 1.58624 16.0395C1.52938 16.1673 1.5 16.3057 1.5 16.4457C1.5 16.5857 1.52938 16.7241 1.58624 16.852C1.62999 16.9507 2.68874 19.2982 5.04249 21.652C8.17874 24.787 12.14 26.4445 16.5 26.4445C20.86 26.4445 24.8212 24.787 27.9575 21.652C30.3112 19.2982 31.37 16.9507 31.4137 16.852C31.4706 16.7241 31.5 16.5857 31.5 16.4457C31.5 16.3057 31.4706 16.1673 31.4137 16.0395ZM16.5 24.4445C12.6525 24.4445 9.29124 23.0457 6.50874 20.2882C5.36704 19.1528 4.39572 17.8582 3.62499 16.4445C4.39551 15.0306 5.36686 13.7359 6.50874 12.6007C9.29124 9.84321 12.6525 8.44446 16.5 8.44446C20.3475 8.44446 23.7087 9.84321 26.4912 12.6007C27.6352 13.7357 28.6086 15.0304 29.3812 16.4445C28.48 18.127 24.5537 24.4445 16.5 24.4445ZM16.5 10.4445C15.3133 10.4445 14.1533 10.7964 13.1666 11.4556C12.1799 12.1149 11.4108 13.052 10.9567 14.1484C10.5026 15.2447 10.3838 16.4511 10.6153 17.615C10.8468 18.7789 11.4182 19.848 12.2573 20.6871C13.0965 21.5262 14.1656 22.0977 15.3294 22.3292C16.4933 22.5607 17.6997 22.4419 18.7961 21.9877C19.8924 21.5336 20.8295 20.7646 21.4888 19.7779C22.1481 18.7912 22.5 17.6311 22.5 16.4445C22.4983 14.8537 21.8657 13.3285 20.7408 12.2036C19.6159 11.0788 18.0908 10.4461 16.5 10.4445ZM16.5 20.4445C15.7089 20.4445 14.9355 20.2099 14.2777 19.7703C13.6199 19.3308 13.1072 18.7061 12.8045 17.9752C12.5017 17.2443 12.4225 16.44 12.5768 15.6641C12.7312 14.8882 13.1122 14.1754 13.6716 13.616C14.231 13.0566 14.9437 12.6757 15.7196 12.5213C16.4956 12.367 17.2998 12.4462 18.0307 12.7489C18.7616 13.0517 19.3863 13.5644 19.8259 14.2222C20.2654 14.88 20.5 15.6533 20.5 16.4445C20.5 17.5053 20.0786 18.5227 19.3284 19.2729C18.5783 20.023 17.5609 20.4445 16.5 20.4445Z" fill="#607D8B"/>
</svg>
