<svg width="40" height="40" viewBox="0 0 40 40" fill="none" xmlns="http://www.w3.org/2000/svg">
<path d="M33.3342 22.1827L22.7117 32.8917C22.0075 33.6013 21.0524 34 20.0566 34C19.0608 34 18.1057 33.6013 17.4015 32.8917L6.77904 22.1846C5.90095 21.3072 5.20343 20.2637 4.72652 19.1138C4.24962 17.964 4.00273 16.7306 4.00002 15.4843C3.99732 14.238 4.23885 13.0035 4.71075 11.8516C5.18265 10.6997 5.87563 9.65306 6.7499 8.77182C7.62417 7.89058 8.66252 7.19208 9.80533 6.71641C10.9481 6.24075 12.1729 5.99729 13.4093 6.00002C14.6457 6.00275 15.8694 6.25161 17.0101 6.73231C18.1509 7.21302 19.1862 7.9161 20.0566 8.80119C21.8246 7.06343 24.2007 6.09776 26.6701 6.11335C29.1395 6.12895 31.5034 7.12456 33.2496 8.88451C34.9959 10.6445 35.984 13.027 35.9998 15.5161C36.0156 18.0052 35.0579 20.4003 33.3342 22.1827Z" stroke="#212121" stroke-width="3" stroke-linecap="round" stroke-linejoin="round"/>
</svg>
