<svg width="33" height="33" viewBox="0 0 33 33" fill="none" xmlns="http://www.w3.org/2000/svg">
<path d="M27.1665 18.1907L18.6686 26.7578C18.1052 27.3256 17.3412 27.6445 16.5445 27.6445C15.7478 27.6445 14.9838 27.3256 14.4204 26.7578L5.92245 18.1922C5.21998 17.4903 4.66196 16.6554 4.28044 15.7356C3.89892 14.8157 3.7014 13.829 3.69924 12.8319C3.69707 11.8349 3.8903 10.8473 4.26782 9.92579C4.64534 9.00425 5.19972 8.16695 5.89914 7.46196C6.59856 6.75697 7.42923 6.19817 8.34348 5.81764C9.25773 5.43711 10.2375 5.24234 11.2267 5.24452C12.2158 5.24671 13.1947 5.4458 14.1073 5.83036C15.0199 6.21492 15.8482 6.77738 16.5445 7.48546C17.9589 6.09525 19.8598 5.32271 21.8353 5.33519C23.8108 5.34767 25.7019 6.14415 27.0989 7.55212C28.496 8.96008 29.2864 10.8661 29.2991 12.8574C29.3117 14.8487 28.5456 16.7648 27.1665 18.1907Z" stroke="#607D8B" stroke-width="2" stroke-linecap="round" stroke-linejoin="round"/>
</svg>
