<svg width="28" height="28" viewBox="0 0 28 28" fill="none" xmlns="http://www.w3.org/2000/svg">
<path d="M23.3337 15.5278L15.898 23.0241C15.405 23.5209 14.7365 23.7999 14.0394 23.7999C13.3424 23.7999 12.6738 23.5209 12.1808 23.0241L4.74513 15.5292C4.13047 14.915 3.6422 14.1845 3.30837 13.3796C2.97454 12.5748 2.80172 11.7113 2.79982 10.839C2.79793 9.96658 2.967 9.10241 3.29733 8.29607C3.62766 7.48973 4.11274 6.75709 4.72473 6.14022C5.33673 5.52336 6.06357 5.0344 6.86353 4.70144C7.6635 4.36848 8.52084 4.19806 9.38632 4.19997C10.2518 4.20188 11.1084 4.37608 11.9069 4.71257C12.7054 5.04906 13.4301 5.54122 14.0394 6.16078C15.277 4.94435 16.9403 4.26838 18.6689 4.2793C20.3974 4.29022 22.0522 4.98714 23.2746 6.21911C24.497 7.45108 25.1886 9.11888 25.1997 10.8612C25.2108 12.6036 24.5404 14.2802 23.3337 15.5278Z" stroke="#607D8B" stroke-width="2" stroke-linecap="round" stroke-linejoin="round"/>
</svg>
