<svg width="40" height="40" viewBox="0 0 40 40" fill="none" xmlns="http://www.w3.org/2000/svg">
<rect x="0.5" y="0.5" width="39" height="39" rx="19.5" fill="#C5CAE9"/>
<rect x="0.5" y="0.5" width="39" height="39" rx="19.5" stroke="#607D8B"/>
<path d="M26 8H14C10.6863 8 8 10.6863 8 14V26C8 29.3137 10.6863 32 14 32H26C29.3137 32 32 29.3137 32 26V14C32 10.6863 29.3137 8 26 8Z" stroke="white" stroke-width="2" stroke-linecap="round" stroke-linejoin="round"/>
<path d="M24.9459 19.2666C25.1002 20.3069 24.9225 21.3694 24.4381 22.3028C23.9537 23.2363 23.1873 23.9933 22.2479 24.4662C21.3085 24.939 20.244 25.1036 19.2057 24.9365C18.1673 24.7694 17.2081 24.2792 16.4645 23.5355C15.7208 22.7919 15.2306 21.8327 15.0635 20.7943C14.8964 19.756 15.061 18.6915 15.5338 17.7521C16.0067 16.8127 16.7637 16.0463 17.6972 15.5619C18.6306 15.0775 19.6931 14.8998 20.7334 15.0541C21.7946 15.2114 22.777 15.7059 23.5355 16.4645C24.2941 17.223 24.7886 18.2054 24.9459 19.2666Z" stroke="white" stroke-width="2" stroke-linecap="round" stroke-linejoin="round"/>
</svg>
