<svg width="29" height="28" viewBox="0 0 29 28" fill="none" xmlns="http://www.w3.org/2000/svg">
<path d="M16.2727 14.5977C15.6061 14.5977 15.0456 14.3678 14.591 13.9079C14.1364 13.4481 13.9091 12.8811 13.9091 12.2068C13.9091 11.5326 14.1364 10.9655 14.591 10.5057C15.0456 10.0458 15.6061 9.8159 16.2727 9.8159C16.9392 9.8159 17.4997 10.0458 17.9543 10.5057C18.4089 10.9655 18.6362 11.5326 18.6362 12.2068C18.6362 12.8811 18.4089 13.4481 17.9543 13.9079C17.4997 14.3678 16.9392 14.5977 16.2727 14.5977ZM8.95509 18.4136C8.42959 18.4136 7.98012 18.2247 7.60668 17.847C7.23245 17.4684 7.04534 17.0137 7.04534 16.483V7.93066C7.04534 7.39988 7.23245 6.94561 7.60668 6.56784C7.98012 6.18928 8.4292 6 8.95391 6H23.5902C24.1157 6 24.5652 6.18888 24.9387 6.56665C25.3121 6.94441 25.4992 7.39908 25.5 7.93066V16.483C25.5 17.0137 25.3129 17.468 24.9387 17.8458C24.5652 18.2243 24.1161 18.4136 23.5914 18.4136H8.95509ZM10.1369 17.2182H22.4085C22.4085 16.6842 22.5956 16.2287 22.9698 15.8518C23.3433 15.4756 23.7923 15.2875 24.317 15.2875V9.12612C23.7892 9.12612 23.3389 8.93724 22.9663 8.55947C22.5944 8.18091 22.4085 7.72624 22.4085 7.19546H10.1369C10.1369 7.72943 9.94976 8.1849 9.57553 8.56187C9.20208 8.93804 8.75301 9.12612 8.2283 9.12612V15.2875C8.75616 15.2875 9.20642 15.4768 9.57907 15.8553C9.95094 16.2331 10.1369 16.6874 10.1369 17.2182ZM21.9996 22H5.40976C4.88426 22 4.43479 21.8111 4.06135 21.4334C3.68712 21.0548 3.5 20.6001 3.5 20.0693V9.53975H4.68178V20.0693C4.68178 20.2526 4.75781 20.4212 4.90986 20.575C5.06113 20.728 5.22776 20.8045 5.40976 20.8045H21.9996V22ZM8.95509 17.2182H8.22712V7.19546H8.95509C8.75813 7.19546 8.58756 7.26798 8.44338 7.41303C8.2992 7.55888 8.22712 7.73142 8.22712 7.93066V16.483C8.22712 16.6822 8.2992 16.8548 8.44338 17.0006C8.58756 17.1456 8.75813 17.2182 8.95509 17.2182Z" fill="#607D8B"/>
</svg>
