<svg width="73" height="72" viewBox="0 0 73 72" fill="none" xmlns="http://www.w3.org/2000/svg">
<rect x="0.5" width="72" height="72" rx="36" fill="#C5CAE9"/>
<path d="M41.1094 37.4196C39.5642 37.4196 38.2648 36.8735 37.2109 35.7814C36.1571 34.6892 35.6302 33.3425 35.6302 31.7412C35.6302 30.1399 36.1571 28.7931 37.2109 27.701C38.2648 26.6088 39.5642 26.0628 41.1094 26.0628C42.6545 26.0628 43.954 26.6088 45.0078 27.701C46.0616 28.7931 46.5885 30.1399 46.5885 31.7412C46.5885 33.3425 46.0616 34.6892 45.0078 35.7814C43.954 36.8735 42.6545 37.4196 41.1094 37.4196ZM24.1459 46.4824C22.9277 46.4824 21.8857 46.0338 21.02 45.1366C20.1525 44.2375 19.7187 43.1577 19.7187 41.897V21.5853C19.7187 20.3247 20.1525 19.2458 21.02 18.3486C21.8857 17.4495 22.9268 17 24.1432 17H58.0728C59.291 17 60.333 17.4486 61.1987 18.3458C62.0644 19.243 62.4982 20.3228 62.5 21.5853V41.897C62.5 43.1577 62.0662 44.2366 61.1987 45.1337C60.333 46.0328 59.292 46.4824 58.0756 46.4824H24.1459ZM26.4817 41.7001C26.9396 42.7053 27.7809 43.6432 28.8855 43.6432H53.3333C54.4378 43.6432 55.2785 42.7052 55.736 41.6998C55.9501 41.2291 56.2496 40.7952 56.6346 40.3979C57.0008 40.02 57.3983 39.722 57.8273 39.504C58.812 39.0034 59.7577 38.1624 59.7577 37.0578V26.4245C59.7577 25.32 58.812 24.4797 57.8268 23.9803C57.394 23.761 56.9939 23.4605 56.6263 23.0788C56.2458 22.6819 55.9493 22.2498 55.7367 21.7824C55.2794 20.777 54.4378 19.8392 53.3333 19.8392H28.8855C27.7809 19.8392 26.9402 20.7772 26.4828 21.7826C26.2686 22.2532 25.9691 22.6872 25.5842 23.0844C25.218 23.4624 24.8204 23.7603 24.3914 23.9784C23.4068 24.4789 22.4611 25.32 22.4611 26.4245V37.0578C22.4611 38.1624 23.4069 39.0027 24.3917 39.5028C24.8245 39.7226 25.2248 40.0238 25.5924 40.4065C25.9727 40.8023 26.2692 41.2335 26.4817 41.7001ZM54.3854 53.5804C54.3854 54.3644 53.7498 55 52.9658 55H15.9272C14.709 55 13.667 54.5514 12.8013 53.6542C11.9338 52.7551 11.5 51.6753 11.5 50.4147V26.7767C11.5 26.0202 12.1133 25.4069 12.8698 25.4069C13.6263 25.4069 14.2396 26.0202 14.2396 26.7767V50.4147C14.2396 50.85 14.4158 51.2504 14.7683 51.6157C15.119 51.9791 15.5053 52.1608 15.9272 52.1608H52.9658C53.7498 52.1608 54.3854 52.7964 54.3854 53.5804ZM24.1459 43.6432C23.2139 43.6432 22.4583 42.8876 22.4583 41.9556V21.5268C22.4583 20.5948 23.2139 19.8392 24.1459 19.8392C23.6893 19.8392 23.2939 20.0115 22.9597 20.3559C22.6254 20.7023 22.4583 21.1121 22.4583 21.5853V41.897C22.4583 42.3702 22.6254 42.78 22.9597 43.1264C23.2939 43.4709 23.6893 43.6432 24.1459 43.6432Z" fill="white"/>
</svg>
