<svg width="73" height="72" viewBox="0 0 73 72" fill="none" xmlns="http://www.w3.org/2000/svg">
<rect x="0.5" width="72" height="72" rx="36" fill="#C5CAE9"/>
<path d="M36.5 34.84L32.0286 38.2009C31.779 38.3603 31.539 38.363 31.3086 38.2091C31.0781 38.0553 31.0105 37.8537 31.1057 37.6046L32.7971 32.1495L28.3457 29.0442C28.1076 28.8848 28.0457 28.6741 28.16 28.4121C28.2743 28.1483 28.461 28.0164 28.72 28.0164H34.2571L35.9514 22.5943C36.0467 22.3452 36.2295 22.2206 36.5 22.2206C36.7705 22.2206 36.9533 22.3452 37.0486 22.5943L38.7429 28.0164H44.2629C44.5238 28.0164 44.7143 28.1483 44.8343 28.4121C44.9543 28.6759 44.8943 28.8866 44.6543 29.0442L40.1857 32.1495L41.88 37.6046C41.9752 37.8537 41.9076 38.0553 41.6771 38.2091C41.4448 38.363 41.2048 38.3603 40.9571 38.2009L36.5 34.84ZM36.5 57.6136L25.1771 60.8674C24.4438 61.1184 23.7667 61.0131 23.1457 60.5514C22.5248 60.0897 22.2143 59.4888 22.2143 58.7486V43.6229C20.4048 41.9118 19 39.9075 18 37.6101C17 35.3126 16.5 32.8549 16.5 30.2368C16.5 24.8743 18.44 20.328 22.32 16.5979C26.1981 12.866 30.9248 11 36.5 11C42.0752 11 46.8019 12.866 50.68 16.5979C54.56 20.328 56.5 24.8743 56.5 30.2368C56.5 32.8549 56 35.3126 55 37.6101C54 39.9075 52.5952 41.9109 50.7857 43.6202V58.7459C50.7857 59.486 50.4752 60.0869 49.8543 60.5486C49.2333 61.0103 48.5571 61.1157 47.8257 60.8647L36.5 57.6136ZM36.5 46.7256C41.2619 46.7256 45.3095 45.1225 48.6429 41.9164C51.9762 38.7102 53.6429 34.817 53.6429 30.2368C53.6429 25.6566 51.9762 21.7635 48.6429 18.5573C45.3095 15.3512 41.2619 13.7481 36.5 13.7481C31.7381 13.7481 27.6905 15.3512 24.3571 18.5573C21.0238 21.7635 19.3571 25.6566 19.3571 30.2368C19.3571 34.817 21.0238 38.7102 24.3571 41.9164C27.6905 45.1225 31.7381 46.7256 36.5 46.7256ZM25.0714 57.839L36.5 54.7611L47.9286 57.839V45.9396C46.3343 47.0663 44.5638 47.9366 42.6171 48.5503C40.6724 49.1659 38.6333 49.4737 36.5 49.4737C34.3667 49.4737 32.3276 49.1659 30.3829 48.5503C28.4362 47.9384 26.6657 47.0682 25.0714 45.9396V57.839Z" fill="white"/>
</svg>
