<svg width="33" height="29" viewBox="0 0 33 29" fill="none" xmlns="http://www.w3.org/2000/svg">
<path d="M2.5 3H4.89024L5.91463 6.69231M5.91463 6.69231L9.32927 19H27.0854L30.5 6.69231H5.91463Z" stroke="#607D8B" stroke-width="2" stroke-linecap="round" stroke-linejoin="round"/>
<path d="M8.77387 24.8889C9.75571 24.8889 10.5516 24.093 10.5516 23.1112C10.5516 22.1293 9.75571 21.3334 8.77387 21.3334C7.79203 21.3334 6.99609 22.1293 6.99609 23.1112C6.99609 24.093 7.79203 24.8889 8.77387 24.8889Z" stroke="#607D8B" stroke-width="1.8" stroke-linecap="round" stroke-linejoin="round"/>
<path d="M26.5297 24.8889C27.5116 24.8889 28.3075 24.093 28.3075 23.1112C28.3075 22.1293 27.5116 21.3334 26.5297 21.3334C25.5479 21.3334 24.752 22.1293 24.752 23.1112C24.752 24.093 25.5479 24.8889 26.5297 24.8889Z" stroke="#607D8B" stroke-width="1.8" stroke-linecap="round" stroke-linejoin="round"/>
</svg>
