<svg width="29" height="28" viewBox="0 0 29 28" fill="none" xmlns="http://www.w3.org/2000/svg">
<path d="M6.83301 19.7143C6.83301 20.3205 7.07884 20.9019 7.51643 21.3305C7.95401 21.7592 8.5475 22 9.16634 22C9.78518 22 10.3787 21.7592 10.8163 21.3305C11.2538 20.9019 11.4997 20.3205 11.4997 19.7143C11.4997 19.1081 11.2538 18.5267 10.8163 18.0981C10.3787 17.6694 9.78518 17.4286 9.16634 17.4286C8.5475 17.4286 7.95401 17.6694 7.51643 18.0981C7.07884 18.5267 6.83301 19.1081 6.83301 19.7143ZM18.4997 19.7143C18.4997 20.3205 18.7455 20.9019 19.1831 21.3305C19.6207 21.7592 20.2142 22 20.833 22C21.4518 22 22.0453 21.7592 22.4829 21.3305C22.9205 20.9019 23.1663 20.3205 23.1663 19.7143C23.1663 19.1081 22.9205 18.5267 22.4829 18.0981C22.0453 17.6694 21.4518 17.4286 20.833 17.4286C20.2142 17.4286 19.6207 17.6694 19.1831 18.0981C18.7455 18.5267 18.4997 19.1081 18.4997 19.7143Z" stroke="#607D8B" stroke-width="1.6" stroke-linecap="round" stroke-linejoin="round"/>
<path d="M6.83333 19.7143H4.5V7.14286C4.5 6.83975 4.62292 6.54906 4.84171 6.33474C5.0605 6.12041 5.35725 6 5.66667 6H16.1667V12.8571H10.3333M10.3333 12.8571L12.6667 15.1429M10.3333 12.8571L12.6667 10.5714M11.5 19.7143H18.5M16.1667 7.14286H22L25.5 12.8571V19.7143H23.1667" stroke="#607D8B" stroke-width="1.6" stroke-linecap="round" stroke-linejoin="round"/>
</svg>
