<svg width="73" height="72" viewBox="0 0 73 72" fill="none" xmlns="http://www.w3.org/2000/svg">
<rect x="0.5" width="72" height="72" rx="36" fill="#C5CAE9"/>
<path d="M18.7212 48.8572C18.7212 50.2212 19.2714 51.5293 20.2507 52.4938C21.2301 53.4582 22.5584 54.0001 23.9434 54.0001C25.3284 54.0001 26.6567 53.4582 27.6361 52.4938C28.6154 51.5293 29.1656 50.2212 29.1656 48.8572C29.1656 47.4932 28.6154 46.1851 27.6361 45.2207C26.6567 44.2562 25.3284 43.7144 23.9434 43.7144C22.5584 43.7144 21.2301 44.2562 20.2507 45.2207C19.2714 46.1851 18.7212 47.4932 18.7212 48.8572ZM44.8323 48.8572C44.8323 50.2212 45.3825 51.5293 46.3618 52.4938C47.3412 53.4582 48.6695 54.0001 50.0545 54.0001C51.4395 54.0001 52.7678 53.4582 53.7472 52.4938C54.7265 51.5293 55.2767 50.2212 55.2767 48.8572C55.2767 47.4932 54.7265 46.1851 53.7472 45.2207C52.7678 44.2562 51.4395 43.7144 50.0545 43.7144C48.6695 43.7144 47.3412 44.2562 46.3618 45.2207C45.3825 46.1851 44.8323 47.4932 44.8323 48.8572Z" stroke="white" stroke-width="3" stroke-linecap="round" stroke-linejoin="round"/>
<path d="M18.7222 48.8571H15.5C14.3954 48.8571 13.5 47.9617 13.5 46.8571V20.5714C13.5 19.8894 13.7751 19.2354 14.2648 18.7532C14.7545 18.2709 15.4186 18 16.1111 18H37.6111C38.7157 18 39.6111 18.8954 39.6111 20V31.4286C39.6111 32.5331 38.7157 33.4286 37.6111 33.4286H26.5556M26.5556 33.4286L31.7778 38.5714M26.5556 33.4286L31.7778 28.2857M29.1667 48.8571H44.8333M39.6111 20.5714H51.5432C52.2409 20.5714 52.8882 20.935 53.2512 21.5308L60.208 32.9492C60.399 33.2627 60.5 33.6228 60.5 33.9898V46.8571C60.5 47.9617 59.6046 48.8571 58.5 48.8571H55.2778" stroke="white" stroke-width="3" stroke-linecap="round" stroke-linejoin="round"/>
</svg>
