<svg width="40" height="40" viewBox="0 0 40 40" fill="none" xmlns="http://www.w3.org/2000/svg">
<rect x="0.5" y="0.5" width="39" height="39" rx="19.5" fill="#C5CAE9"/>
<rect x="0.5" y="0.5" width="39" height="39" rx="19.5" stroke="#607D8B"/>
<path d="M32 9.01233C30.9553 9.8405 29.7987 10.4739 28.5745 10.8882C27.9175 10.0392 27.0444 9.43739 26.0731 9.16427C25.1019 8.89115 24.0795 8.95985 23.1441 9.36109C22.2087 9.76232 21.4056 10.4767 20.8433 11.4077C20.2809 12.3387 19.9866 13.4413 20 14.5664V15.7924C18.0829 15.8483 16.1832 15.3704 14.4702 14.4014C12.7572 13.4324 11.284 12.0022 10.1818 10.2384C10.1818 10.2384 5.81818 21.2729 15.6364 26.1771C13.3897 27.8911 10.7133 28.7506 8 28.6293C17.8182 34.7596 29.8182 28.6293 29.8182 14.5296C29.8172 14.1881 29.788 13.8474 29.7309 13.512C30.8443 12.2779 31.63 10.7199 32 9.01233Z" stroke="white" stroke-width="2" stroke-linecap="round" stroke-linejoin="round"/>
</svg>
