<svg width="52" height="52" viewBox="0 0 52 52" fill="none" xmlns="http://www.w3.org/2000/svg">
<path d="M26 4C19.7383 4 14.3 7.69 11.5917 13.09C8.40717 13.4474 5.46218 15.0142 3.32256 17.4895C1.18294 19.9647 -0.000372021 23.1738 8.77343e-08 26.5C8.77343e-08 33.9475 5.82833 40 13 40H41.1667C47.1467 40 52 34.96 52 28.75C52 22.81 47.5583 17.995 41.925 17.59C41.1972 13.7599 39.2115 10.3109 36.307 7.8323C33.4025 5.35367 29.7594 3.99912 26 4Z" fill="#1F2E8E"/>
<g clip-path="url(#clip0_91_17611)">
<path d="M32 17C32.5304 17 33.0391 17.2107 33.4142 17.5858C33.7893 17.9609 34 18.4696 34 19V43C34 43.5304 33.7893 44.0391 33.4142 44.4142C33.0391 44.7893 32.5304 45 32 45H20C19.4696 45 18.9609 44.7893 18.5858 44.4142C18.2107 44.0391 18 43.5304 18 43V19C18 18.4696 18.2107 17.9609 18.5858 17.5858C18.9609 17.2107 19.4696 17 20 17H32ZM20 15C18.9391 15 17.9217 15.4214 17.1716 16.1716C16.4214 16.9217 16 17.9391 16 19V43C16 44.0609 16.4214 45.0783 17.1716 45.8284C17.9217 46.5786 18.9391 47 20 47H32C33.0609 47 34.0783 46.5786 34.8284 45.8284C35.5786 45.0783 36 44.0609 36 43V19C36 17.9391 35.5786 16.9217 34.8284 16.1716C34.0783 15.4214 33.0609 15 32 15H20Z" fill="#607D8B"/>
<path d="M26 43C26.5304 43 27.0391 42.7893 27.4142 42.4142C27.7893 42.0391 28 41.5304 28 41C28 40.4696 27.7893 39.9609 27.4142 39.5858C27.0391 39.2107 26.5304 39 26 39C25.4696 39 24.9609 39.2107 24.5858 39.5858C24.2107 39.9609 24 40.4696 24 41C24 41.5304 24.2107 42.0391 24.5858 42.4142C24.9609 42.7893 25.4696 43 26 43Z" fill="#607D8B"/>
</g>
<defs>
<clipPath id="clip0_91_17611">
<rect width="32" height="32" fill="white" transform="translate(10 15)"/>
</clipPath>
</defs>
</svg>
